<svg xmlns="http://www.w3.org/2000/svg" viewBox="0 0 504.76 67.73"><defs><style>.cls-1{fill:#1d1d1b;}</style></defs><g id="letters"><g id="group"><path class="cls-1" d="M20.83,37.7H5.29v28H0V2.24H21C32.92,2.24,41.16,9.5,41.16,20S32.92,37.7,20.83,37.7ZM20.41,7H5.29V32.9H20.41C29.74,32.9,35.7,28,35.7,20.06S29.74,7,20.41,7Z" transform="translate(-0.04 -0.07)"/><path class="cls-1" d="M53.68,65.67V2.24h5.25V60.8h30.7v4.87Z" transform="translate(-0.04 -0.07)"/><path class="cls-1" d="M126.17,2.24,152.3,65.67h-5.71l-7.14-17.51H108l-7.14,17.51H95.26L121.39,2.24Zm11.39,41.25-10.5-25.8c-.84-2.18-1.75-3-3.36-3s-2.43.84-3.36,3l-10.5,25.8Z" transform="translate(-0.04 -0.07)"/><path class="cls-1" d="M201.29,2.24V7H181.88V65.67h-5.25V7h-20V2.24Z" transform="translate(-0.04 -0.07)"/><path class="cls-1" d="M291.84,2.24,323.5,47.87c1.52,2.1,2.36,2.85,3.71,2.85s2.34-1.1,2.34-3.12V2.24h5.25V65.67h-5.72L297.39,20c-1.53-2.18-2.37-2.87-3.63-2.87-1.59,0-2.43,1.11-2.43,3.12V65.67h-5.25V2.24Z" transform="translate(-0.04 -0.07)"/><path class="cls-1" d="M358.08,2.24V65.67h-5.25V2.24Z" transform="translate(-0.04 -0.07)"/><path class="cls-1" d="M426.76,23.91c-2.7-10.33-12-17.29-23.45-17.29-15,0-26.64,12-26.64,27.39a26.57,26.57,0,0,0,26.64,27.21,23.89,23.89,0,0,0,23.78-17.5l5.25,1.17c-3.27,12.94-14.77,21.51-29,21.51A31.75,31.75,0,0,1,371.14,34a31.65,31.65,0,0,1,32-32.35c14.1,0,26,8.65,28.72,21Z" transform="translate(-0.04 -0.07)"/><path class="cls-1" d="M504.8,34a32.27,32.27,0,1,1-2.43-12.44A32.36,32.36,0,0,1,504.8,34Zm-59.21,0a26.78,26.78,0,1,0,1.87-10.44A26.74,26.74,0,0,0,445.59,34Z" transform="translate(-0.04 -0.07)"/></g></g><g id="icon"><path class="cls-1" d="M267.07,43.28c10,3.38,10.17,3,.32-.86s-17.89-7-17.87-7.17,8.75-.58,19.25-.84,10.5-.67,0-.91-19.25-.56-19.25-.7,7.89-3.8,17.66-7.86,9.61-4.46-.35-.86-18.06,6.43-18.15,6.27a190,190,0,0,1,12.88-14.48c7.3-7.64,7-7.94-.65-.64s-14,13.18-14.23,13.05a170.4,170.4,0,0,1,5.48-18.62c3.4-10,3-10.17-.86-.33s-7,17.88-7.17,17.87-.58-8.75-.84-19.25-.67-10.51-.91,0-.56,19.25-.7,19.25-3.8-7.91-7.86-17.7-4.46-9.61-.86.34,6.43,18.14,6.27,18.25-6.83-5.6-14.48-12.9-7.94-7-.64.65,13.18,14,13,14.23a170.4,170.4,0,0,1-18.62-5.48c-10-3.38-10.17-3-.33.86s17.89,7.09,17.87,7.19-8.75.58-19.25.82-10.5.67,0,.91,19.25.58,19.25.7-7.89,3.8-17.64,7.88-9.61,4.44.33.84,18.15-6.42,18.25-6.27A192.42,192.42,0,0,1,224.12,52c-7.29,7.66-7,7.94.65.64s14-13.16,14.23-13a170.4,170.4,0,0,1-5.48,18.62c-3.37,10-3,10.17.86.31s7.09-17.88,7.19-17.87.58,8.75.83,19.26.66,10.5.91,0,.57-19.26.7-19.26,3.79,7.9,7.87,17.66,4.45,9.61.84-.35-6.42-18.15-6.26-18.23a187.94,187.94,0,0,1,14.47,12.88c7.67,7.3,7.95,7,.65-.65s-13.16-14-13-14.23A170.69,170.69,0,0,1,267.07,43.28Z" transform="translate(-0.04 -0.07)"/></g></svg>