<svg xmlns="http://www.w3.org/2000/svg" viewBox="0 0 511 512">
  <defs>
    <style>
      .cls-1{fill:#1d1d1b;}
      .cls-2{fill:none;}
    </style>
  </defs>

  <g id="hand">
    <path class="cls-1" d="M129.44,155.54V9.24a8.24,8.24,0,1,1,16.48,0V162.71c0,11.73-.33,30.22,5.5,36.78,4,4.34,11.42,2.75,13.51,1,6-5.16,6.49-15,6.51-23.21l1.43-136.63a8.25,8.25,0,0,1,16.49,0V207.82c0,13.16-2.75,58,9.28,61.92,14.67,4.86,16-5.77,22.47-24,1.9-5.22,8.11-24.92,11.24-35.88,23.43-82.07,37.12-54.54,37.12-54.54s-14.35,70.83-7.28,106.35c-4.65,15.17-49,69.7-70.66,115C164.9,432.33,166,454,166,454H47.1V81.74a8.26,8.26,0,0,1,8.24-8.24h.2a8.26,8.26,0,0,1,8.24,8.24v97.83c0,6.27.33,17.18,5.74,21.46a9,9,0,0,0,10,.17,14.89,14.89,0,0,0,6-8.52c3.22-11,2.53-24.18,2.53-35.44V40.64a8.25,8.25,0,0,1,8.24-8.24h.19a8.26,8.26,0,0,1,8.25,8.24V181.86c0,6.7-.91,13.73,5.33,18.4a11,11,0,0,0,11.89.85,10.54,10.54,0,0,0,3.28-2.84,10.76,10.76,0,0,0,1.89-3.91C130.21,180.07,129.44,168.59,129.44,155.54Z"/>
    <rect class="cls-2" width="511" height="511"/>
  </g>
  <g id="hand_2">
    <path class="cls-1" d="M383.26,357.49V503.76a8.25,8.25,0,0,1-16.49,0V350.27c0-11.74.33-30.22-5.49-36.79-4-4.34-11.43-2.75-13.49-1-6,5.16-6.48,15-6.54,23.21l-1.4,136.63a8.24,8.24,0,1,1-16.48,0V305.13c0-13.16,2.74-58-9.29-61.93-14.67-4.86-16,5.77-22.5,24-1.87,5.22-8.08,24.89-11.21,35.71-23.43,82.09-37.11,54.54-37.11,54.54s14.34-70.83,7.28-106.33c4.64-15.16,49-69.72,70.66-115,26.62-55.61,25.46-77.26,25.46-77.26H465.59V431.06a8.25,8.25,0,0,1-8.24,8.25h-.19a8.25,8.25,0,0,1-8.24-8.25V333.42c0-6.26-.33-17.17-5.72-21.45a9,9,0,0,0-10-.19,14.64,14.64,0,0,0-6,8.51c-3.21,11-2.53,24.18-2.53,35.47v116.6a8.25,8.25,0,0,1-8.24,8.24h-.19a8.25,8.25,0,0,1-8.24-8.24V331.14c0-6.73.9-13.73-5.33-18.43a11,11,0,0,0-11.9-.82,10.35,10.35,0,0,0-3.28,2.82,10.58,10.58,0,0,0-1.88,3.91C382.46,333,383.26,344.58,383.26,357.49Z"/>
  </g>
</svg>