<svg xmlns="http://www.w3.org/2000/svg" viewBox="0 0 124 124">
  <defs>
    <style>
      .cls-1{fill:#1d1d1b;}
      .cls-2{fill:none;}
    </style>
  </defs>
  <g id="Layer_1" data-name="Layer 1">
    <path class="cls-1" d="M62,106.2C30.67,106.2.54,82.23.24,82a.58.58,0,0,1-.18-.23A.67.67,0,0,1,0,81.48a.59.59,0,0,1,.07-.29A.55.55,0,0,1,.25,81C.56,80.73,31.37,56.76,62,56.76s61.48,24,61.79,24.21a.63.63,0,0,1,.18.22.73.73,0,0,1,.07.29.55.55,0,0,1-.07.28.58.58,0,0,1-.18.23C123.45,82.23,93.25,106.2,62,106.2ZM1.72,81.49C6.28,85,33.68,104.9,62,104.9S117.69,85,122.29,81.49C117.65,78,89.63,58.07,62,58.07S6.35,78,1.72,81.49Z"/>
    <rect class="cls-2" width="124" height="124"/>
  </g>
  <g id="Layer_2" data-name="Layer 2">
    <path class="cls-1" d="M88.33,63c10.73,3.63,10.92,3.22.35-.92s-19.46-6.46-19.43-6.57,9.34-.62,20.7-.89,11.36-.71,0-1S69.29,53,69.27,52.86s8.48-4.09,19-8.45,10.32-4.79-.36-.92-19.51,6.9-19.61,6.73,6-7.32,13.85-15.54,7.53-8.54-.69-.7S66.32,48.13,66.13,48,68.39,38.76,72,28s3.22-10.92-.92-.35-7.61,19.21-7.72,19.2-.62-9.35-.89-20.71-.71-11.35-1,0-.6,20.67-.74,20.69-4.09-8.49-8.45-19-4.79-10.31-.92.37,6.9,19.5,6.73,19.6S50.8,41.82,42.58,34s-8.54-7.53-.7.7S56,49.78,55.9,50s-9.24-2.26-20-5.89S25,40.86,35.55,45s19.21,7.6,19.2,7.72-9.35.61-20.7.89-11.36.71,0,1,20.66.61,20.68.75-8.52,2.93-19,7.32-10.32,4.79.36.92S55.61,57.83,55.72,58s-6,7.32-13.85,15.54-7.53,8.54.69.7,15.1-14.15,15.29-14-2.26,9.24-5.89,20-3.22,10.92.92.34,7.61-19.21,7.72-19.19.62,9.34.89,20.7.71,11.36,1,0,.6-20.67.74-20.68,4.09,8.48,8.45,19,4.79,10.32.92-.36-6.9-19.51-6.73-19.61,7.32,6,15.54,13.85,8.54,7.52.7-.7S68,58.44,68.08,58.26,77.56,59.34,88.33,63Z"/>
  </g>
</svg>